<?xml version='1.0' encoding='utf-8'?>
<svg xmlns="http://www.w3.org/2000/svg" width="3000" height="3000" viewBox="0 0 793.74998 793.75002" version="1.1" id="svg8"> <defs id="defs2"/> <metadata id="metadata5"> </metadata> <g id="layer1"> <path id="path849" style="fill:#000000;fill-rule:evenodd;stroke-width:1.32292;stroke-linejoin:round;stop-color:#000000" d="m 535.77737,287.7363 v 33.06907 h -3.30342 l -3.30728,29.76563 h -3.3073 v 29.76562 h -3.3073 v 95.91145 H 499.40105 V 463.0189 h -13.22918 v -23.15105 h -26.45832 v 19.84375 h -3.3073 v 9.92187 h -13.22918 v -39.6875 h -6.61457 v -9.92187 h -19.84375 v -72.7604 h -26.45833 v 9.92187 h -6.6146 v 26.45833 h -6.61457 V 353.87827 H 353.8802 v 19.84375 h -3.30728 v 26.45833 h -3.3073 v 19.84375 h -13.22917 v -23.15103 h -3.30728 V 386.9512 H 320.8073 V 367.10745 H 300.96355 V 334.0384 h -3.31118 v 33.06905 H 277.8125 v 26.45832 h -26.45833 v 13.22918 h -9.92188 v -16.53648 h -39.6875 v 19.84375 h -9.92188 v 6.6146 h -3.30729 v 16.53645 h -9.92187 v -42.9948 h -9.92188 v -23.15102 l -6.61458,-3.96875 v -39.02605 h -3.31117 v 37.03907 l -6.61071,-3.96615 v 16.53645 l -13.22916,6.6146 v 36.3802 h -3.30729 v 23.15103 h -9.92188 V 420.0241 l -6.61458,-26.45833 -6.61459,26.45833 v 6.6146 H 99.21875 v 33.0729 h -9.92188 v -66.1439 l -3.30729,-0.002 H 59.53125 l -3.30729,0.002 v 52.91475 H 39.6875 V 433.25327 H 36.38021 V 413.40952 H 9.92188 v 16.53645 H 0 v 76.06773 h 793.75 v -99.21875 h -36.38023 v 36.3802 h -26.45832 v -13.22918 h -23.15103 v -19.84375 h -13.22917 v -36.3802 l -39.6875,6.6146 v 49.60935 h -36.3802 v 6.6146 h -6.6146 v -23.15105 h -29.76563 v 42.9948 h -9.92187 V 443.17515 H 552.3177 v -62.83853 h -3.30728 V 350.571 h -3.3073 l -3.3073,-29.76563 h -3.30727 V 287.7363 Z"/> </g> </svg>